<mxfile host="Electron" modified="2024-01-29T01:24:06.575Z" agent="Mozilla/5.0 (X11; Linux x86_64) AppleWebKit/537.36 (KHTML, like Gecko) draw.io/23.0.2 Chrome/120.0.6099.109 Electron/28.1.0 Safari/537.36" etag="ArnzkMh0nKK6bVpKvAko" version="23.0.2" type="device">
  <diagram name="페이지-1" id="jzpdceayq8IltRaFDLh8">
    <mxGraphModel dx="1434" dy="784" grid="1" gridSize="10" guides="1" tooltips="1" connect="1" arrows="1" fold="1" page="1" pageScale="1" pageWidth="827" pageHeight="1169" math="0" shadow="0">
      <root>
        <mxCell id="0" />
        <mxCell id="1" parent="0" />
        <mxCell id="oDIIPvB-Y4KzyoOwKRaM-20" value="" style="fillColor=none;strokeColor=#5A6C86;dashed=1;verticalAlign=top;fontStyle=0;fontColor=#5A6C86;whiteSpace=wrap;html=1;" parent="1" vertex="1">
          <mxGeometry x="80" y="120" width="710" height="460" as="geometry" />
        </mxCell>
        <mxCell id="oDIIPvB-Y4KzyoOwKRaM-1" value="&lt;b&gt;외부 서드파티 시스템&lt;br&gt;( External Client )&lt;/b&gt;" style="whiteSpace=wrap;html=1;shape=mxgraph.basic.octagon2;align=center;verticalAlign=middle;dx=15;fillColor=#ffe6cc;strokeColor=#d79b00;" parent="1" vertex="1">
          <mxGeometry x="130" y="170" width="120" height="120" as="geometry" />
        </mxCell>
        <mxCell id="oDIIPvB-Y4KzyoOwKRaM-2" value="&lt;b&gt;SMTP 메일 서비스&lt;/b&gt;" style="whiteSpace=wrap;html=1;shape=mxgraph.basic.octagon2;align=center;verticalAlign=middle;dx=15;fillColor=#dae8fc;strokeColor=#6c8ebf;" parent="1" vertex="1">
          <mxGeometry x="130" y="330" width="120" height="120" as="geometry" />
        </mxCell>
        <mxCell id="oDIIPvB-Y4KzyoOwKRaM-3" value="&lt;b&gt;시스템&lt;/b&gt;" style="whiteSpace=wrap;html=1;shape=mxgraph.basic.octagon2;align=center;verticalAlign=top;dx=15;fillColor=#d5e8d4;strokeColor=#82b366;" parent="1" vertex="1">
          <mxGeometry x="340" y="290" width="170" height="170" as="geometry" />
        </mxCell>
        <mxCell id="oDIIPvB-Y4KzyoOwKRaM-4" value="" style="ellipse;whiteSpace=wrap;html=1;aspect=fixed;fillColor=#f5f5f5;fontColor=#333333;strokeColor=#666666;" parent="1" vertex="1">
          <mxGeometry x="370" y="320" width="110" height="110" as="geometry" />
        </mxCell>
        <mxCell id="oDIIPvB-Y4KzyoOwKRaM-5" value="" style="ellipse;whiteSpace=wrap;html=1;aspect=fixed;fillColor=#6a00ff;fontColor=#ffffff;strokeColor=#3700CC;" parent="1" vertex="1">
          <mxGeometry x="394" y="350" width="20" height="20" as="geometry" />
        </mxCell>
        <mxCell id="oDIIPvB-Y4KzyoOwKRaM-6" value="" style="ellipse;whiteSpace=wrap;html=1;aspect=fixed;fillColor=#a20025;fontColor=#ffffff;strokeColor=#6F0000;" parent="1" vertex="1">
          <mxGeometry x="440" y="390" width="20" height="20" as="geometry" />
        </mxCell>
        <mxCell id="oDIIPvB-Y4KzyoOwKRaM-7" value="" style="endArrow=classic;startArrow=classic;html=1;rounded=0;entryX=0;entryY=0;entryDx=0;entryDy=0;exitX=1;exitY=1;exitDx=0;exitDy=0;" parent="1" source="oDIIPvB-Y4KzyoOwKRaM-5" target="oDIIPvB-Y4KzyoOwKRaM-6" edge="1">
          <mxGeometry width="50" height="50" relative="1" as="geometry">
            <mxPoint x="410" y="370" as="sourcePoint" />
            <mxPoint x="520" y="560" as="targetPoint" />
          </mxGeometry>
        </mxCell>
        <mxCell id="oDIIPvB-Y4KzyoOwKRaM-8" value="" style="endArrow=classic;startArrow=classic;html=1;rounded=0;exitX=1;exitY=0.5;exitDx=0;exitDy=0;exitPerimeter=0;entryX=0.006;entryY=0.171;entryDx=0;entryDy=0;entryPerimeter=0;" parent="1" source="oDIIPvB-Y4KzyoOwKRaM-1" target="oDIIPvB-Y4KzyoOwKRaM-3" edge="1">
          <mxGeometry width="50" height="50" relative="1" as="geometry">
            <mxPoint x="330" y="520" as="sourcePoint" />
            <mxPoint x="380" y="470" as="targetPoint" />
          </mxGeometry>
        </mxCell>
        <mxCell id="oDIIPvB-Y4KzyoOwKRaM-9" value="" style="endArrow=classic;html=1;rounded=0;exitX=-0.006;exitY=0.824;exitDx=0;exitDy=0;exitPerimeter=0;entryX=1;entryY=0.5;entryDx=0;entryDy=0;entryPerimeter=0;" parent="1" source="oDIIPvB-Y4KzyoOwKRaM-3" target="oDIIPvB-Y4KzyoOwKRaM-2" edge="1">
          <mxGeometry width="50" height="50" relative="1" as="geometry">
            <mxPoint x="320" y="560" as="sourcePoint" />
            <mxPoint x="370" y="510" as="targetPoint" />
          </mxGeometry>
        </mxCell>
        <mxCell id="oGKg710pgNi25db6KJGg-5" value="" style="endArrow=none;dashed=1;html=1;dashPattern=1 3;strokeWidth=2;rounded=0;exitX=0;exitY=0;exitDx=105;exitDy=15;exitPerimeter=0;entryX=0;entryY=0.5;entryDx=0;entryDy=0;" edge="1" parent="1" source="oDIIPvB-Y4KzyoOwKRaM-2" target="oGKg710pgNi25db6KJGg-3">
          <mxGeometry width="50" height="50" relative="1" as="geometry">
            <mxPoint x="235" y="435" as="sourcePoint" />
            <mxPoint x="330" y="440" as="targetPoint" />
          </mxGeometry>
        </mxCell>
        <mxCell id="oGKg710pgNi25db6KJGg-3" value="&lt;b&gt;비관리 의존성&lt;/b&gt;" style="text;html=1;align=center;verticalAlign=middle;whiteSpace=wrap;rounded=0;strokeColor=#b85450;fillColor=#f8cecc;" vertex="1" parent="1">
          <mxGeometry x="340" y="130" width="120" height="30" as="geometry" />
        </mxCell>
        <mxCell id="oGKg710pgNi25db6KJGg-7" value="&lt;b&gt;데이터베이스&lt;/b&gt;" style="whiteSpace=wrap;html=1;shape=mxgraph.basic.octagon2;align=center;verticalAlign=top;dx=15;fillColor=#dae8fc;strokeColor=#6c8ebf;" vertex="1" parent="1">
          <mxGeometry x="610" y="200" width="160" height="260" as="geometry" />
        </mxCell>
        <mxCell id="oGKg710pgNi25db6KJGg-8" value="관리" style="rounded=1;whiteSpace=wrap;html=1;fillColor=#e1d5e7;strokeColor=#9673a6;" vertex="1" parent="1">
          <mxGeometry x="630" y="360" width="120" height="60" as="geometry" />
        </mxCell>
        <mxCell id="oGKg710pgNi25db6KJGg-9" value="비관리" style="rounded=1;whiteSpace=wrap;html=1;fillColor=#fff2cc;strokeColor=#d6b656;" vertex="1" parent="1">
          <mxGeometry x="630" y="270" width="120" height="60" as="geometry" />
        </mxCell>
        <mxCell id="oGKg710pgNi25db6KJGg-10" value="" style="endArrow=none;dashed=1;html=1;dashPattern=1 3;strokeWidth=2;rounded=0;exitX=1;exitY=0.5;exitDx=0;exitDy=0;entryX=0;entryY=0.5;entryDx=0;entryDy=0;" edge="1" parent="1" source="oGKg710pgNi25db6KJGg-3" target="oGKg710pgNi25db6KJGg-9">
          <mxGeometry width="50" height="50" relative="1" as="geometry">
            <mxPoint x="245" y="355" as="sourcePoint" />
            <mxPoint x="380" y="175" as="targetPoint" />
          </mxGeometry>
        </mxCell>
        <mxCell id="oGKg710pgNi25db6KJGg-11" value="&lt;b&gt;관리 의존성&lt;/b&gt;" style="text;html=1;align=center;verticalAlign=middle;whiteSpace=wrap;rounded=0;strokeColor=#b85450;fillColor=#f8cecc;" vertex="1" parent="1">
          <mxGeometry x="390" y="200" width="120" height="30" as="geometry" />
        </mxCell>
        <mxCell id="oGKg710pgNi25db6KJGg-6" value="" style="endArrow=none;dashed=1;html=1;dashPattern=1 3;strokeWidth=2;rounded=0;fontStyle=1;entryX=0;entryY=0.5;entryDx=0;entryDy=0;exitX=0.75;exitY=1;exitDx=0;exitDy=0;" edge="1" parent="1" source="oGKg710pgNi25db6KJGg-11" target="oGKg710pgNi25db6KJGg-8">
          <mxGeometry width="50" height="50" relative="1" as="geometry">
            <mxPoint x="450" y="400" as="sourcePoint" />
            <mxPoint x="550" y="388.46153846153857" as="targetPoint" />
          </mxGeometry>
        </mxCell>
        <mxCell id="oGKg710pgNi25db6KJGg-12" value="" style="endArrow=classic;startArrow=classic;html=1;rounded=0;entryX=1;entryY=0.5;entryDx=0;entryDy=0;exitX=0;exitY=0.5;exitDx=0;exitDy=0;entryPerimeter=0;" edge="1" parent="1" source="oGKg710pgNi25db6KJGg-8" target="oDIIPvB-Y4KzyoOwKRaM-3">
          <mxGeometry width="50" height="50" relative="1" as="geometry">
            <mxPoint x="421" y="377" as="sourcePoint" />
            <mxPoint x="453" y="403" as="targetPoint" />
          </mxGeometry>
        </mxCell>
        <mxCell id="oGKg710pgNi25db6KJGg-13" value="" style="endArrow=classic;startArrow=classic;html=1;rounded=0;exitX=1;exitY=0.5;exitDx=0;exitDy=0;exitPerimeter=0;entryX=0;entryY=0.5;entryDx=0;entryDy=0;" edge="1" parent="1" source="oDIIPvB-Y4KzyoOwKRaM-1" target="oGKg710pgNi25db6KJGg-9">
          <mxGeometry width="50" height="50" relative="1" as="geometry">
            <mxPoint x="260" y="240" as="sourcePoint" />
            <mxPoint x="351" y="329" as="targetPoint" />
          </mxGeometry>
        </mxCell>
        <mxCell id="oGKg710pgNi25db6KJGg-14" value="" style="endArrow=none;dashed=1;html=1;dashPattern=1 4;strokeWidth=2;rounded=0;entryX=0.5;entryY=0;entryDx=0;entryDy=0;strokeColor=#FF1251;" edge="1" parent="1" target="oGKg710pgNi25db6KJGg-15">
          <mxGeometry width="50" height="50" relative="1" as="geometry">
            <mxPoint x="300" y="410" as="sourcePoint" />
            <mxPoint x="380" y="175" as="targetPoint" />
          </mxGeometry>
        </mxCell>
        <mxCell id="oGKg710pgNi25db6KJGg-15" value="시스템의 식별 가능한 동작&lt;br&gt;( Mock )" style="text;html=1;strokeColor=none;fillColor=none;align=center;verticalAlign=middle;whiteSpace=wrap;rounded=0;fontStyle=1" vertex="1" parent="1">
          <mxGeometry x="170" y="500" width="170" height="30" as="geometry" />
        </mxCell>
        <mxCell id="oGKg710pgNi25db6KJGg-16" value="" style="endArrow=none;dashed=1;html=1;dashPattern=1 4;strokeWidth=2;rounded=0;entryX=0.5;entryY=0;entryDx=0;entryDy=0;strokeColor=#FF1251;" edge="1" parent="1" target="oGKg710pgNi25db6KJGg-17">
          <mxGeometry width="50" height="50" relative="1" as="geometry">
            <mxPoint x="580" y="380" as="sourcePoint" />
            <mxPoint x="580" y="205" as="targetPoint" />
          </mxGeometry>
        </mxCell>
        <mxCell id="oGKg710pgNi25db6KJGg-17" value="시스템의 식별 가능한 동작&lt;br&gt;( 구현세부 사항 )" style="text;html=1;strokeColor=none;fillColor=none;align=center;verticalAlign=middle;whiteSpace=wrap;rounded=0;fontStyle=1" vertex="1" parent="1">
          <mxGeometry x="480" y="500" width="170" height="30" as="geometry" />
        </mxCell>
        <mxCell id="oGKg710pgNi25db6KJGg-18" value="" style="endArrow=none;dashed=1;html=1;dashPattern=1 4;strokeWidth=2;rounded=0;strokeColor=#FF1251;exitX=0;exitY=0;exitDx=155;exitDy=155;exitPerimeter=0;entryX=0.5;entryY=0;entryDx=0;entryDy=0;" edge="1" parent="1" source="oDIIPvB-Y4KzyoOwKRaM-3" target="oGKg710pgNi25db6KJGg-17">
          <mxGeometry width="50" height="50" relative="1" as="geometry">
            <mxPoint x="590" y="390" as="sourcePoint" />
            <mxPoint x="590" y="550" as="targetPoint" />
          </mxGeometry>
        </mxCell>
      </root>
    </mxGraphModel>
  </diagram>
</mxfile>
